HIERARCHY
ROOT Hips
{
	OFFSET 0.000000 0.000000 0.000000
	CHANNELS 6 Xposition Yposition Zposition Zrotation Yrotation Xrotation 
	JOINT LHipJoint
	{
		OFFSET 0.000000 0.000000 0.000000
		CHANNELS 3 Zrotation Yrotation Xrotation
		JOINT LeftUpLeg
		{
			OFFSET 1.363060 -1.794630 0.839290
			CHANNELS 3 Zrotation Yrotation Xrotation
			JOINT LeftLeg
			{
				OFFSET 2.448110 -6.726130 0.000000
				CHANNELS 3 Zrotation Yrotation Xrotation
				JOINT LeftFoot
				{
					OFFSET 2.562200 -7.039590 0.000000
					CHANNELS 3 Zrotation Yrotation Xrotation
					JOINT LeftToeBase
					{
						OFFSET 0.157640 -0.433110 2.322550
						CHANNELS 3 Zrotation Yrotation Xrotation
						End Site
						{
							OFFSET 0.000000 0.000000 0.000000
						}
					}
				}
			}
		}
	}
	JOINT RHipJoint
	{
		OFFSET 0.000000 0.000000 0.000000
		CHANNELS 3 Zrotation Yrotation Xrotation
		JOINT RightUpLeg
		{
			OFFSET -1.305520 -1.794630 0.839290
			CHANNELS 3 Zrotation Yrotation Xrotation
			JOINT RightLeg
			{
				OFFSET -2.542530 -6.985550 0.000000
				CHANNELS 3 Zrotation Yrotation Xrotation
				JOINT RightFoot
				{
					OFFSET -2.568260 -7.056230 0.000000
					CHANNELS 3 Zrotation Yrotation Xrotation
					JOINT RightToeBase
					{
						OFFSET -0.164730 -0.452590 2.363150
						CHANNELS 3 Zrotation Yrotation Xrotation
						End Site
						{
							OFFSET 0.000000 0.000000 0.000000
						}
					}
				}
			}
		}
	}
	JOINT LowerBack
	{
		OFFSET 0.000000 0.000000 0.000000
		CHANNELS 3 Zrotation Yrotation Xrotation
		JOINT Spine
		{
			OFFSET 0.028270 2.035590 -0.193380
			CHANNELS 3 Zrotation Yrotation Xrotation
			JOINT Spine1
			{
				OFFSET 0.056720 2.048850 -0.042750
				CHANNELS 3 Zrotation Yrotation Xrotation
				JOINT Neck
				{
					OFFSET 0.000000 0.000000 0.000000
					CHANNELS 3 Zrotation Yrotation Xrotation
					JOINT Neck1
					{
						OFFSET -0.054170 1.746240 0.172020
						CHANNELS 3 Zrotation Yrotation Xrotation
						JOINT Head
						{
							OFFSET 0.104070 1.761360 -0.123970
							CHANNELS 3 Zrotation Yrotation Xrotation
							End Site
							{
								OFFSET 0.000000 0.000000 0.000000
							}
						}
					}
				}
				JOINT LeftShoulder
				{
					OFFSET 0.000000 0.000000 0.000000
					CHANNELS 3 Zrotation Yrotation Xrotation
					JOINT LeftArm
					{
						OFFSET 3.362410 1.200890 -0.311210
						CHANNELS 3 Zrotation Yrotation Xrotation
						JOINT LeftForeArm
						{
							OFFSET 4.983000 -0.000000 -0.000000
							CHANNELS 3 Zrotation Yrotation Xrotation
							JOINT LeftHand
							{
								OFFSET 3.483560 -0.000000 -0.000000
								CHANNELS 3 Zrotation Yrotation Xrotation
								JOINT LeftFingerBase
								{
									OFFSET 0.000000 0.000000 0.000000
									CHANNELS 3 Zrotation Yrotation Xrotation
									JOINT LeftHandIndex1
									{
										OFFSET 0.715260 -0.000000 -0.000000
										CHANNELS 3 Zrotation Yrotation Xrotation
										End Site
										{
											OFFSET 0.000000 0.000000 0.000000
										}
									}
								}
								JOINT LThumb
								{
									OFFSET 0.000000 0.000000 0.000000
									CHANNELS 3 Zrotation Yrotation Xrotation
									End Site
									{
										OFFSET 0.000000 0.000000 0.000000
									}
								}
							}
						}
					}
				}
				JOINT RightShoulder
				{
					OFFSET 0.000000 0.000000 0.000000
					CHANNELS 3 Zrotation Yrotation Xrotation
					JOINT RightArm
					{
						OFFSET -3.136600 1.374050 -0.404650
						CHANNELS 3 Zrotation Yrotation Xrotation
						JOINT RightForeArm
						{
							OFFSET -5.241900 -0.000000 -0.000000
							CHANNELS 3 Zrotation Yrotation Xrotation
							JOINT RightHand
							{
								OFFSET -3.444170 -0.000000 -0.000000
								CHANNELS 3 Zrotation Yrotation Xrotation
								JOINT RightFingerBase
								{
									OFFSET 0.000000 0.000000 0.000000
									CHANNELS 3 Zrotation Yrotation Xrotation
									JOINT RightHandIndex1
									{
										OFFSET -0.622530 -0.000000 -0.000000
										CHANNELS 3 Zrotation Yrotation Xrotation
										End Site
										{
											OFFSET 0.000000 0.000000 0.000000
										}
									}
								}
								JOINT RThumb
								{
									OFFSET 0.000000 0.000000 0.000000
									CHANNELS 3 Zrotation Yrotation Xrotation
									End Site
									{
										OFFSET 0.000000 0.000000 0.000000
									}
								}
							}
						}
					}
				}
			}
		}
	}
}
MOTION
Frames: 11
Frame Time: 0.008333
5.064356 17.333966 0.899541 -143.738010 -84.823864 155.808631 -10.337596 3.314506 3.023055 -6.678492 17.776106 -19.533522 -2.992737 -1.390337 1.172519 0.409170 2.753070 -0.930572 0.476300 -0.000000 -28.394400 9.667474 -2.519156 5.515563 8.348397 -0.012965 -13.056327 3.133301 2.456638 -4.163910 -0.215664 -3.675582 0.415045 -1.442500 -0.000001 -34.207599 2.206685 -4.275383 -10.846988 0.229627 -4.979775 -5.492694 -5.207650 -4.898577 -4.103541 6.347699 -2.681254 6.186788 -2.663013 -0.369936 3.872833 0.000000 0.000000 0.000000 13.805579 4.040157 -7.302122 -71.694605 -70.418692 -2.136673 173.877396 -54.502050 179.460215 28.949604 -19.246528 -5.486205 -0.382962 1.467886 -0.000000 0.000000 0.000000 0.000000 0.000000 0.000000 0.000000 3.162574 -9.394306 -8.114445 63.125215 69.866258 -13.827186 -173.998405 54.581107 179.610915 -22.052899 24.027176 -5.066418 0.140054 -1.312119 0.000000 0.000000 0.000000 0.000000 0.000000 0.000000 0.000000 
5.057312 17.333282 0.896659 -112.618226 -86.776458 124.968314 -10.220927 2.897211 3.108189 -6.556817 16.464899 -19.875870 -2.956000 -1.590414 1.454255 0.291819 2.228973 -0.726991 0.459400 0.000000 -28.497600 9.768908 -2.943394 5.591622 8.594552 -0.683546 -13.460562 3.020390 2.297753 -4.161349 -0.414574 -4.669777 -0.093061 -1.603000 -0.000001 -33.743400 2.024761 -4.836071 -11.002246 0.307547 -5.483302 -5.546803 -5.079447 -5.395558 -4.287497 6.210965 -2.536232 6.196813 -2.569035 -0.366343 3.879228 0.000000 0.000000 0.000000 13.658546 3.614622 -7.261131 -71.618759 -70.927733 -2.124507 173.771774 -54.531769 179.456486 29.243714 -19.237942 -5.539549 -0.382727 1.461302 -0.000000 0.000000 0.000000 0.000000 0.000000 0.000000 0.000000 2.909763 -9.466413 -8.122316 61.272133 70.707111 -15.810772 -173.954233 55.094938 179.607209 -22.487171 24.048333 -5.173059 0.147798 -1.308522 0.000000 0.000000 0.000000 0.000000 0.000000 0.000000 0.000000 
5.052243 17.332553 0.893864 -60.924646 -88.318439 73.552408 -11.214508 2.582314 3.297615 -6.919869 15.210467 -20.203467 -2.893093 -1.655069 1.493051 0.229107 1.899918 -0.493960 0.445400 0.000000 -28.577000 8.789146 -3.257800 5.512185 8.299089 -1.279283 -13.761580 2.992490 2.282383 -4.012072 -0.540156 -5.494216 -0.587171 -1.768200 -0.000000 -33.243100 0.600132 -5.309914 -11.129211 0.111110 -5.717386 -5.607370 -4.869417 -5.652733 -4.515403 6.020122 -2.345327 6.209214 -2.463137 -0.363103 3.886547 0.000000 0.000000 0.000000 13.492994 3.250901 -7.215298 -71.458790 -71.472161 -2.211425 173.615809 -54.556305 179.450102 29.648645 -19.422775 -5.669025 -0.380609 1.458326 -0.000000 0.000000 0.000000 0.000000 0.000000 0.000000 0.000000 2.632159 -9.360944 -8.116666 59.086734 71.626211 -18.069741 -173.964900 55.791263 179.604355 -22.897704 24.196400 -5.301966 0.155294 -1.306137 0.000000 0.000000 0.000000 0.000000 0.000000 0.000000 0.000000 
5.047232 17.330877 0.896288 -25.412980 -88.279273 38.411526 -11.840305 2.944522 3.949434 -6.884874 13.258958 -20.935024 -2.786213 -1.446759 1.522426 0.295636 1.957088 -0.522074 0.439000 0.000000 -28.569600 8.111917 -2.901779 5.070687 8.510415 -2.594713 -14.108337 3.131231 2.521006 -3.467930 -0.469239 -5.850235 -0.950217 -1.911300 0.000001 -32.634899 -0.005229 -5.183281 -11.305260 -0.023962 -5.544731 -5.715812 -4.699061 -5.499094 -4.807671 5.670271 -2.101481 6.209321 -2.352984 -0.358494 3.893944 0.000000 0.000000 0.000000 13.195651 3.061992 -7.147824 -71.347285 -72.065164 -2.348044 173.467529 -54.571896 179.442428 30.161043 -19.766272 -5.868248 -0.381785 1.460182 -0.000000 0.000000 0.000000 0.000000 0.000000 0.000000 0.000000 2.169823 -9.001868 -8.103734 56.538380 72.578267 -20.654184 -174.001501 56.690209 179.601509 -23.289982 24.520893 -5.466583 0.160943 -1.305977 -0.000000 0.000000 0.000000 0.000000 0.000000 0.000000 0.000000 
5.046817 17.330257 0.893101 -17.697423 -87.483278 30.996068 -11.734435 3.076008 4.192313 -6.825553 12.263750 -21.276497 -2.774660 -1.401353 1.335548 0.278746 1.745093 -0.309758 0.427400 -0.000000 -28.610500 8.187760 -2.728491 4.929615 8.629039 -2.932174 -14.383097 3.097088 2.580394 -3.169214 -0.512386 -6.552515 -1.302844 -2.078700 0.000000 -32.076800 0.010587 -4.970787 -11.343416 -0.020505 -5.365893 -5.812761 -4.566210 -5.328635 -5.169921 5.323948 -1.815948 6.213986 -2.226410 -0.352990 3.900913 0.000000 0.000000 0.000000 12.863603 2.834955 -7.066707 -71.160328 -72.746721 -2.569731 173.320538 -54.614349 179.433963 30.767075 -20.220883 -6.122740 -0.383097 1.462385 -0.000000 0.000000 0.000000 0.000000 0.000000 0.000000 0.000000 1.651807 -8.521088 -8.133419 53.550771 73.426160 -23.672460 -174.063152 57.787532 179.598104 -23.676292 25.050795 -5.678186 0.163176 -1.306961 -0.000000 0.000000 0.000000 0.000000 0.000000 0.000000 0.000000 
5.049196 17.329997 0.889032 -13.101422 -86.474789 26.705223 -11.588692 3.134547 4.376944 -6.764312 11.296369 -21.554221 -2.767509 -1.389098 1.108047 0.247116 1.499590 -0.035460 0.415600 -0.000000 -28.634800 8.310260 -2.609746 4.798937 8.739303 -3.267489 -14.672600 3.044369 2.603398 -2.901944 -0.564525 -7.268255 -1.661984 -2.242600 -0.000000 -31.496400 0.044630 -4.786145 -11.326399 -0.003434 -5.205646 -5.909876 -4.420847 -5.174818 -5.580583 4.919623 -1.512793 6.213948 -2.074130 -0.346527 3.907201 0.000000 0.000000 0.000000 12.455324 2.559122 -6.955961 -70.944728 -73.522744 -2.852383 173.177627 -54.695413 179.425126 31.447564 -20.698372 -6.405370 -0.384983 1.463476 -0.000000 0.000000 0.000000 0.000000 0.000000 0.000000 0.000000 0.968021 -7.971726 -8.211606 50.250731 74.120738 -27.102350 -174.157300 59.077597 179.594571 -24.058573 25.781942 -5.939226 0.163751 -1.310534 -0.000000 0.000000 0.000000 0.000000 0.000000 0.000000 0.000000 
5.054301 17.330317 0.883891 -9.989279 -85.385803 23.908759 -11.443216 3.146211 4.516979 -6.722987 10.372194 -21.795960 -2.764943 -1.394481 0.843267 0.207849 1.244101 0.291293 0.403700 0.000001 -28.648400 8.437554 -2.520297 4.672032 8.823027 -3.577565 -14.977539 2.981781 2.605714 -2.655685 -0.618001 -7.978965 -2.014917 -2.403900 -0.000000 -30.892200 0.060876 -4.597600 -11.266239 0.015557 -5.027859 -6.008104 -4.258615 -5.002296 -6.029325 4.447081 -1.217794 6.201106 -1.896177 -0.339009 3.910730 0.000000 0.000000 0.000000 11.969519 2.248700 -6.816361 -70.700808 -74.386040 -3.189159 173.041279 -54.823837 179.416486 32.170008 -21.146016 -6.694327 -0.386886 1.462212 -0.000000 0.000000 0.000000 0.000000 0.000000 0.000000 0.000000 0.094928 -7.356898 -8.340795 46.756156 74.628065 -30.899896 -174.291669 60.571680 179.590972 -24.459593 26.696731 -6.254195 0.163338 -1.315991 -0.000000 0.000000 0.000000 0.000000 0.000000 0.000000 0.000000 
5.062305 17.331412 0.877371 -7.661159 -84.279570 21.898627 -11.305676 3.124176 4.614427 -6.706116 9.501584 -21.994427 -2.766566 -1.409650 0.542025 0.165092 0.996135 0.666713 0.392600 0.000000 -28.657000 8.562434 -2.445730 4.540229 8.871560 -3.862834 -15.281475 2.912720 2.592827 -2.426848 -0.668630 -8.663115 -2.351220 -2.559600 -0.000000 -30.273500 0.046927 -4.387450 -11.155935 0.031495 -4.812968 -6.103448 -4.076540 -4.791625 -6.503153 3.903859 -0.952920 6.167586 -1.693099 -0.330285 3.909192 0.000000 0.000000 0.000000 11.408607 1.908151 -6.650711 -70.437622 -75.329596 -3.563982 172.913814 -55.003042 179.408623 32.898680 -21.505823 -6.963105 -0.388451 1.457373 -0.000000 0.000000 0.000000 0.000000 0.000000 0.000000 0.000000 -0.979715 -6.686731 -8.513824 43.209957 74.925963 -34.990809 -174.474711 62.292974 179.587422 -24.892048 27.734928 -6.615193 0.162487 -1.322088 -0.000000 0.000000 0.000000 0.000000 0.000000 0.000000 0.000000 
5.073542 17.333488 0.869056 -5.797477 -83.189660 20.338470 -11.178290 3.074417 4.663387 -6.716953 8.718062 -22.145129 -2.774306 -1.428690 0.225778 0.118647 0.742983 1.081754 0.378900 0.000000 -28.660900 8.683370 -2.379254 4.396867 8.883731 -4.130468 -15.560157 2.839393 2.566756 -2.216843 -0.714535 -9.302182 -2.662537 -2.705300 -0.000000 -29.642300 -0.005503 -4.147768 -10.981446 0.042063 -4.551485 -6.190031 -3.870523 -4.533268 -6.988352 3.292470 -0.723945 6.107434 -1.464426 -0.320119 3.900628 0.000000 0.000000 0.000000 10.781785 1.540155 -6.463980 -70.183125 -76.342037 -3.945710 172.793871 -55.229124 179.402080 33.602124 -21.696528 -7.176396 -0.389716 1.447347 -0.000000 0.000000 0.000000 0.000000 0.000000 0.000000 0.000000 -2.265721 -5.965479 -8.714480 39.759062 74.992104 -39.287339 -174.712766 64.265060 179.583985 -25.363501 28.795447 -7.002609 0.161947 -1.327493 -0.000000 0.000000 0.000000 0.000000 0.000000 0.000000 0.000000 
5.088015 17.336749 0.858906 -4.229407 -82.127376 19.059468 -11.061016 3.001396 4.671622 -6.751782 8.002989 -22.253177 -2.785810 -1.449848 -0.101761 0.072019 0.507368 1.534001 0.365500 0.000000 -28.666700 8.799288 -2.317974 4.243097 8.862497 -4.381426 -15.814390 2.763668 2.530059 -2.030191 -0.756767 -9.895267 -2.940151 -2.841100 -0.000000 -29.007200 -0.092135 -3.874859 -10.751208 0.046760 -4.241636 -6.264006 -3.643509 -4.224867 -7.464533 2.618289 -0.548479 6.011140 -1.216349 -0.308492 3.882085 0.000000 0.000000 0.000000 10.089665 1.147954 -6.264170 -69.941885 -77.414156 -4.320551 172.686830 -55.491357 179.397183 34.239233 -21.738508 -7.327884 -0.390125 1.433207 -0.000000 0.000000 0.000000 0.000000 0.000000 0.000000 0.000000 -3.735380 -5.223858 -8.922134 36.581639 74.874600 -43.635203 -175.012722 66.554824 179.580337 -25.898651 29.780141 -7.400941 0.162620 -1.331289 -0.000000 0.000000 0.000000 0.000000 0.000000 0.000000 0.000000 
5.105700 17.341316 0.846790 -2.863824 -81.103286 17.958647 -10.954732 2.908050 4.638768 -6.807006 7.362193 -22.310703 -2.800179 -1.470535 -0.429948 0.026193 0.291445 2.017316 0.352400 -0.000000 -28.675200 8.909654 -2.260057 4.075029 8.810510 -4.625936 -16.026921 2.687162 2.483664 -1.871064 -0.795760 -10.433296 -3.175802 -2.964500 -0.000000 -28.377600 -0.210185 -3.569203 -10.458654 0.044819 -3.885700 -6.320222 -3.400672 -3.868455 -7.917682 1.894163 -0.422321 5.874556 -0.954140 -0.295399 3.852004 0.000000 0.000000 0.000000 9.340266 0.738099 -6.058880 -69.733241 -78.530793 -4.663173 172.594944 -55.777938 179.394150 34.778650 -21.634994 -7.408760 -0.389431 1.415588 -0.000000 0.000000 0.000000 0.000000 0.000000 0.000000 0.000000 -5.356802 -4.475524 -9.116888 33.810143 74.611763 -47.905617 -175.382064 69.232339 179.576237 -26.495548 30.570354 -7.779883 0.165387 -1.333096 -0.000000 0.000000 0.000000 0.000000 0.000000 0.000000 0.000000 
